<svg xmlns="http://www.w3.org/2000/svg" width="61.297" height="32.166" viewBox="0 0 61.297 32.166">
  <g id="Group_4" data-name="Group 4" transform="translate(-1030.703 -2779.007)">
    <path id="Path_27" data-name="Path 27" d="M-4045.612,2884.919c11.936-15.375,13.984-24.175,13.984-24.175l7.865,4.45,10.722-12.441,14.566,18.207,6.2-8.7,7.965,22.658Z" transform="translate(5076.314 -73.746)" fill="#7b7878"/>
    <path id="Path_28" data-name="Path 28" d="M-4025.649,2925.148l13.757-13.959h-4.552Z" transform="translate(5061.916 -115.896)" fill="#fff"/>
    <path id="Path_29" data-name="Path 29" d="M-4000.968,2892.19l6.373-2.63v2.023l3.844-4.35v4.957l9.913-23.467Z" transform="translate(5044.112 -85.265)" fill="#fff"/>
    <path id="Path_30" data-name="Path 30" d="M-3922.207,2878.16l4.653,14.97,2.327-3.338,3.743,1.618Z" transform="translate(4987.301 -92.072)" fill="#fff"/>
    <path id="Path_31" data-name="Path 31" d="M-3872.874,2935.15c-1.214-1.315-6.777-7.991-6.777-7.991l1.012,6.271h-3.642l2.63,2.63,8.092,1.214Z" transform="translate(4958.502 -127.416)" fill="#fff"/>
    <path id="Path_32" data-name="Path 32" d="M-4045.612,2884.919c11.936-15.375,13.984-24.175,13.984-24.175l7.865,4.45,10.722-12.441,14.566,18.207,6.2-8.7,7.965,22.658Z" transform="translate(5076.314 -73.746)" fill="#fff"/>
    <path id="Path_33" data-name="Path 33" d="M-4025.649,2925.148l13.757-13.959h-4.552Z" transform="translate(5061.916 -115.896)" fill="#0c0b0b"/>
    <path id="Path_34" data-name="Path 34" d="M-4000.968,2892.19l6.373-2.63v2.023l3.844-4.35v4.957l9.913-23.467Z" transform="translate(5044.112 -85.265)" fill="#0c0b0b"/>
    <path id="Path_35" data-name="Path 35" d="M-3922.207,2878.16l4.653,14.97,2.327-3.338,3.743,1.618Z" transform="translate(4987.301 -92.072)" fill="#0c0b0b"/>
    <path id="Path_36" data-name="Path 36" d="M-3872.874,2935.15c-1.214-1.315-6.777-7.991-6.777-7.991l1.012,6.271h-3.642l2.63,2.63,8.092,1.214Z" transform="translate(4958.502 -127.416)" fill="#0c0b0b"/>
  </g>
</svg>
